<svg xmlns="http://www.w3.org/2000/svg" xmlns:xlink="http://www.w3.org/1999/xlink" width="500" zoomAndPan="magnify" viewBox="0 0 375 112.499997" height="150" preserveAspectRatio="xMidYMid meet" version="1.0"><defs><g/><clipPath id="e808ad2b92"><path d="M 0.828125 0 L 374.167969 0 L 374.167969 112.003906 L 0.828125 112.003906 Z M 0.828125 0 " clip-rule="nonzero"/></clipPath><clipPath id="2ac715c0aa"><path d="M 10 11 L 373.867188 11 L 373.867188 103.910156 L 10 103.910156 Z M 10 11 " clip-rule="nonzero"/></clipPath><clipPath id="5b84d43d33"><path d="M 4.257812 4.601562 L 348 4.601562 L 348 100 L 4.257812 100 Z M 4.257812 4.601562 " clip-rule="nonzero"/></clipPath></defs><g clip-path="url(#e808ad2b92)"><path fill="#ffffff" d="M 0.828125 0 L 374.171875 0 L 374.171875 112.003906 L 0.828125 112.003906 Z M 0.828125 0 " fill-opacity="1" fill-rule="nonzero"/><path fill="#ffffff" d="M 0.828125 0 L 374.171875 0 L 374.171875 112.003906 L 0.828125 112.003906 Z M 0.828125 0 " fill-opacity="1" fill-rule="nonzero"/></g><g clip-path="url(#2ac715c0aa)"><path fill="#f34336" d="M 371.21875 81.804688 L 363.253906 76.007812 L 362.417969 66.503906 L 365.570312 58.121094 L 373.9375 54.371094 L 372.984375 44.175781 C 370.765625 39.582031 369.476562 35.121094 369.105469 30.796875 L 361.308594 27.3125 L 358.308594 27.644531 L 366.082031 20.359375 L 358.40625 23.675781 L 352.367188 20.398438 C 347.179688 18.480469 340.476562 16.804688 332.253906 15.375 L 323.820312 18.265625 L 314.273438 24.761719 L 308.597656 21.238281 L 314.832031 15.042969 L 308.171875 12.113281 L 303.230469 11.011719 L 296.0625 17.238281 L 288.136719 20.261719 L 287.601562 16.90625 L 292.296875 16.113281 L 291.402344 12.839844 L 281.816406 19.957031 L 276.097656 20.894531 L 278.550781 24.253906 L 269.976562 23.46875 L 267.664062 21.449219 L 258.929688 21.5625 L 252.433594 24.898438 L 241.261719 26.117188 L 232.535156 25.796875 C 227.609375 24.527344 221.019531 23.332031 212.761719 22.21875 L 203.933594 24.96875 L 203.996094 27.105469 L 196.007812 26.601562 L 152.878906 21.53125 L 123.753906 19.375 C 105.425781 18.269531 85.65625 18.320312 64.4375 19.523438 L 64.601562 20.390625 L 94.855469 20.121094 L 104.492188 20.375 L 114.566406 21.621094 C 117.589844 21.335938 128.636719 22.101562 147.707031 23.914062 L 142.945312 24.851562 L 134.0625 25.101562 L 120.542969 24.582031 L 123.300781 27.800781 L 117.0625 28.472656 C 96.503906 27.0625 77.589844 26.355469 60.316406 26.355469 L 45.140625 24.632812 L 37.175781 24.40625 L 39.191406 25.75 L 55.601562 28.136719 L 63.226562 28.449219 L 65.976562 27.457031 L 83.394531 27.722656 C 90.074219 28.066406 97.753906 28.589844 106.429688 29.292969 C 111.140625 29.402344 131.859375 32.070312 168.589844 37.296875 L 163.859375 38.433594 C 154.699219 37.691406 148.597656 37.417969 145.554688 37.605469 C 119.8125 34.789062 101.039062 32.339844 89.230469 30.25 C 79.917969 30.664062 71.085938 30.761719 62.742188 30.542969 L 64.417969 31.113281 C 69.464844 31.175781 76.085938 31.636719 84.28125 32.488281 L 92.601562 34.164062 L 75.890625 34.71875 L 100.570312 36.019531 C 104.242188 36.851562 110.132812 37.878906 118.238281 39.09375 C 111.46875 38.933594 104.59375 38.683594 97.609375 38.339844 C 99.128906 39.617188 101.171875 40.875 103.734375 42.109375 L 91.757812 40.132812 L 78.398438 42.09375 C 88.144531 43.445312 94.433594 44.515625 97.269531 45.304688 L 110.851562 47.027344 L 113.847656 51.210938 L 111.136719 54.484375 L 123.347656 56.484375 L 113.738281 56.679688 C 106.628906 56.480469 99.855469 56.082031 93.417969 55.492188 L 88.265625 56.394531 L 75.332031 55.242188 C 80.359375 56.582031 87.515625 57.730469 96.796875 58.683594 L 100.410156 62.851562 L 99.316406 67.460938 L 86.714844 65.4375 L 95.691406 67.457031 L 100.601562 70.140625 L 87.722656 68.800781 L 100.144531 72.660156 L 107.824219 76.335938 C 91.914062 73.636719 81.554688 71.527344 76.75 70.007812 L 83.519531 72.683594 C 90.460938 74.386719 96.921875 76.210938 102.894531 78.160156 C 99.128906 79.199219 89.828125 80.480469 75 82.003906 C 69.449219 83.175781 62.453125 84.34375 54.015625 85.503906 L 47.171875 87.265625 L 78.214844 83.96875 L 86.625 84.113281 C 64.089844 87.558594 46.796875 89.992188 34.746094 91.417969 C 35.675781 91.671875 41.449219 91.289062 52.0625 90.265625 L 56.953125 90.804688 L 45.058594 92.445312 C 41.542969 93.378906 35.683594 94.660156 27.484375 96.28125 L 32.527344 95.859375 C 52.910156 92.410156 62.890625 90.875 62.46875 91.261719 C 62.777344 91.980469 63.6875 92.300781 65.199219 92.230469 L 75.082031 90.996094 L 71.433594 92.191406 L 61.734375 93.453125 L 42.265625 94.941406 L 31.789062 96.742188 C 25.269531 98.597656 18.863281 100.167969 12.5625 101.453125 L 10.585938 102.722656 C 23.496094 100.628906 36.628906 99.121094 49.984375 98.207031 L 69.542969 97.621094 L 100.164062 95.59375 L 100.40625 96.441406 L 84.433594 98.621094 C 56.230469 100.921875 38.496094 102.683594 31.226562 103.902344 C 38.238281 103.65625 45.226562 103.171875 52.179688 102.445312 L 54.628906 103.851562 L 84.277344 99.363281 C 106.152344 97.183594 130.4375 95.328125 157.132812 93.792969 L 158.199219 95.078125 C 148.0625 96.230469 142.226562 97.121094 140.683594 97.761719 C 109.015625 100.222656 90.902344 101.960938 86.34375 102.976562 L 132.558594 99.738281 C 132.863281 99.945312 141.179688 99.480469 157.515625 98.339844 C 165.460938 98.042969 170.292969 98.027344 172.011719 98.292969 L 197.546875 97.125 L 208.757812 96.851562 C 232.894531 96.558594 245.882812 96.242188 247.726562 95.898438 C 252.515625 95.625 258.929688 95.738281 266.960938 96.238281 L 276.703125 94.738281 C 282.878906 94.761719 289.710938 94.429688 297.195312 93.742188 L 304.421875 97.335938 L 311.5625 94.160156 L 322.191406 93.679688 C 327.480469 92.175781 330.804688 90.914062 332.164062 89.890625 L 330.507812 91.238281 L 340.0625 95.988281 L 351.765625 96.695312 L 339.695312 91.761719 C 344.511719 91.953125 350.660156 92.835938 358.136719 94.410156 L 363.304688 91.984375 L 371.21875 81.804688 " fill-opacity="1" fill-rule="nonzero"/></g><g clip-path="url(#5b84d43d33)"><path fill="#f34336" d="M 7.988281 26.5625 L 15.402344 33.085938 L 15.632812 43.101562 L 11.523438 52.074219 L 4.4375 57.171875 C 4.320312 64.425781 5.328125 70.628906 7.464844 75.777344 L 13.8125 79.617188 L 22.367188 78.796875 L 14.351562 84.675781 L 17.566406 86.636719 L 25.148438 86.050781 L 33.019531 90.199219 L 44.253906 93.089844 L 52.332031 89.847656 L 61.992188 83.121094 L 65.929688 89.269531 L 60.878906 95.578125 L 65.519531 99.886719 C 72.195312 96.980469 77.851562 93.355469 82.484375 89.007812 L 89.859375 88.429688 L 84.167969 90.359375 L 82.910156 98.351562 L 88.660156 90.265625 L 95.503906 88.179688 L 94.136719 84.746094 L 102.371094 84.910156 L 103.707031 87.203125 L 114.105469 86.640625 L 120.257812 83.085938 L 130.515625 81.878906 C 136.976562 82.730469 143.625 83.886719 150.457031 85.34375 L 158.324219 84.507812 L 163.226562 81.628906 L 167.375 81.363281 L 210.785156 86.796875 L 239.59375 89.074219 C 246.933594 89.523438 253.539062 89.773438 259.410156 89.816406 L 289.625 89.125 L 297.367188 88.058594 L 256.613281 88.171875 L 247.40625 86.753906 L 236.789062 86.371094 C 226.371094 85.695312 219.226562 85.011719 215.355469 84.316406 L 222.28125 83.121094 L 232.148438 83.496094 L 242.300781 82.867188 L 237.457031 79.632812 L 279.816406 81.878906 C 288.175781 82.058594 293.660156 82.066406 296.273438 81.898438 L 311.359375 83.722656 L 319.507812 83.949219 L 316.757812 82.410156 L 299.84375 80.195312 L 289.96875 79.578125 L 287.90625 80.960938 L 279.015625 80.769531 C 261.78125 79.730469 251.300781 78.945312 247.574219 78.40625 C 236.300781 77.046875 219.21875 74.582031 196.320312 71.019531 L 202.886719 70.09375 L 213.039062 70.457031 C 235.585938 72.714844 253.460938 75.066406 266.664062 77.519531 L 273.613281 78.105469 C 276.359375 77.707031 283.019531 77.613281 293.585938 77.824219 L 294.132812 77.300781 C 289.382812 77.25 282.484375 76.71875 273.445312 75.707031 L 267.46875 74.070312 L 278.273438 74.035156 L 280.941406 73.5 C 271.3125 73.148438 263.71875 72.609375 258.164062 71.882812 L 244.699219 69.839844 L 247.226562 68.953125 L 259.515625 70.042969 L 262.691406 68.722656 L 255.804688 66.296875 L 267.105469 68.046875 C 273.933594 67.351562 278.125 66.714844 279.683594 66.136719 L 248.703125 60.929688 L 247.230469 55.695312 L 242.511719 51.585938 C 249.8125 51.785156 256.816406 52.105469 263.523438 52.539062 L 270.980469 52.132812 L 281.046875 52.980469 L 276.652344 51.367188 L 264.035156 49.8125 L 260.0625 45.433594 L 262.496094 41.15625 L 271.953125 42.730469 L 261.273438 40.445312 L 264.273438 37.414062 L 254.582031 34.378906 L 259.488281 32.941406 C 265.4375 34.226562 271.933594 35.78125 278.980469 37.613281 L 278.855469 36.714844 C 271.242188 34.523438 264.492188 32.433594 258.609375 30.441406 L 266.472656 28.511719 C 280.039062 26.730469 289.570312 25.332031 295.070312 24.316406 L 304.082031 22.433594 L 305.722656 21.5 C 288.167969 23.644531 278.199219 24.742188 275.824219 24.785156 L 279.652344 22.996094 L 320.816406 17.003906 C 320.40625 16.6875 314.789062 17.085938 303.957031 18.191406 L 302.546875 17.246094 L 313.453125 15.664062 L 329.394531 11.476562 C 308.628906 15.230469 298.097656 17.015625 297.789062 16.824219 L 290.304688 17.289062 L 295.460938 15.722656 L 285.3125 17.105469 L 286.359375 16.269531 L 295.890625 14.929688 C 302.390625 14.476562 308.867188 13.910156 315.320312 13.238281 L 326.226562 11.078125 C 330.753906 9.578125 337.832031 7.726562 347.464844 5.523438 C 322.539062 8.710938 310.046875 10.171875 309.984375 9.914062 C 303.292969 10.367188 296.933594 10.585938 290.910156 10.570312 L 259.957031 12.796875 L 261.277344 11.765625 L 269.367188 10.558594 L 277.269531 9.472656 L 312.664062 6.121094 L 324.019531 4.730469 L 318.195312 4.675781 L 308.148438 5.636719 C 302.886719 5.039062 298.605469 5.035156 295.3125 5.628906 L 275.070312 9 C 249.402344 11.554688 229.578125 13.25 215.597656 14.089844 L 204.765625 14.039062 C 212.25 12.949219 217.273438 11.929688 219.835938 10.980469 C 250.832031 8.273438 268.546875 6.40625 272.988281 5.382812 C 270.417969 5.460938 258.613281 6.375 237.578125 8.121094 L 201.238281 10.308594 C 197.730469 10.011719 193.191406 10.007812 187.625 10.285156 L 172.191406 11.132812 C 161.367188 11.652344 148.097656 11.941406 132.386719 12.007812 L 121.632812 12.558594 C 115.832031 12.320312 109.289062 12.285156 102.007812 12.460938 L 92.496094 13.855469 C 87.234375 13.691406 80.421875 13.839844 72.050781 14.300781 L 67.570312 13.984375 L 57.398438 14.480469 C 50.882812 16.3125 47.199219 17.871094 46.351562 19.152344 L 45.839844 17.234375 L 37.203125 12.429688 L 25.75 11.757812 L 30.601562 13.753906 L 35.839844 17.800781 L 27.214844 15.347656 L 20.757812 14.996094 L 11.394531 17.355469 L 7.558594 25.953125 L 7.988281 26.5625 " fill-opacity="1" fill-rule="nonzero"/></g><g fill="#ffffff" fill-opacity="1"><g transform="translate(27.04286, 65.117486)"><g><path d="M 19.65625 0 L 14.890625 0 L 8.09375 -16.28125 L 5.265625 0 L 0.359375 0 L 4.59375 -24.421875 L 9.34375 -24.421875 L 16.15625 -8.09375 L 18.984375 -24.421875 L 23.875 -24.421875 Z M 19.65625 0 "/></g></g></g><g fill="#ffffff" fill-opacity="1"><g transform="translate(50.732988, 65.117486)"><g><path d="M 8.671875 0.328125 C 7.078125 0.316406 5.664062 -0.0664062 4.4375 -0.828125 C 3.21875 -1.597656 2.304688 -2.648438 1.703125 -3.984375 C 1.109375 -5.316406 0.875 -6.789062 1 -8.40625 L 1.0625 -9.078125 C 1.226562 -10.835938 1.738281 -12.457031 2.59375 -13.9375 C 3.457031 -15.414062 4.566406 -16.550781 5.921875 -17.34375 C 7.273438 -18.144531 8.769531 -18.523438 10.40625 -18.484375 C 12.75 -18.429688 14.519531 -17.570312 15.71875 -15.90625 C 16.925781 -14.238281 17.382812 -12.125 17.09375 -9.5625 L 16.8125 -7.5 L 5.703125 -7.5 C 5.660156 -6.320312 5.945312 -5.378906 6.5625 -4.671875 C 7.175781 -3.972656 8.015625 -3.613281 9.078125 -3.59375 C 10.796875 -3.539062 12.300781 -4.203125 13.59375 -5.578125 L 15.765625 -2.90625 C 15.078125 -1.875 14.09375 -1.066406 12.8125 -0.484375 C 11.53125 0.0859375 10.148438 0.359375 8.671875 0.328125 Z M 10.171875 -14.578125 C 9.304688 -14.597656 8.535156 -14.320312 7.859375 -13.75 C 7.179688 -13.175781 6.570312 -12.1875 6.03125 -10.78125 L 12.546875 -10.78125 L 12.640625 -11.21875 C 12.710938 -11.664062 12.71875 -12.09375 12.65625 -12.5 C 12.550781 -13.144531 12.28125 -13.648438 11.84375 -14.015625 C 11.40625 -14.378906 10.847656 -14.566406 10.171875 -14.578125 Z M 10.171875 -14.578125 "/></g></g></g><g fill="#ffffff" fill-opacity="1"><g transform="translate(68.907151, 65.117486)"><g><path d="M 8.78125 -12.765625 L 12.59375 -18.140625 L 17.90625 -18.140625 L 11.34375 -9.015625 L 15.015625 0 L 10.21875 0 L 7.984375 -5.671875 L 3.96875 0 L -1.375 0 L 5.46875 -9.484375 L 1.96875 -18.140625 L 6.765625 -18.140625 Z M 8.78125 -12.765625 "/></g></g></g><g fill="#ffffff" fill-opacity="1"><g transform="translate(86.025073, 65.117486)"><g><path d="M 9.640625 -22.609375 L 8.859375 -18.140625 L 11.875 -18.140625 L 11.25 -14.59375 L 8.234375 -14.59375 L 6.6875 -5.5 C 6.625 -4.925781 6.671875 -4.488281 6.828125 -4.1875 C 6.984375 -3.882812 7.363281 -3.722656 7.96875 -3.703125 C 8.144531 -3.691406 8.625 -3.722656 9.40625 -3.796875 L 9.078125 -0.078125 C 8.234375 0.191406 7.328125 0.316406 6.359375 0.296875 C 4.804688 0.273438 3.648438 -0.207031 2.890625 -1.15625 C 2.128906 -2.101562 1.8125 -3.390625 1.9375 -5.015625 L 3.5 -14.59375 L 0.9375 -14.59375 L 1.5625 -18.140625 L 4.125 -18.140625 L 4.890625 -22.609375 Z M 9.640625 -22.609375 "/></g></g></g><g fill="#ffffff" fill-opacity="1"><g transform="translate(97.442612, 65.117486)"><g/></g></g><g fill="#ffffff" fill-opacity="1"><g transform="translate(105.909364, 65.117486)"><g><path d="M 19.921875 -3.078125 C 19.046875 -1.972656 17.765625 -1.117188 16.078125 -0.515625 C 14.398438 0.078125 12.503906 0.351562 10.390625 0.3125 C 8.722656 0.300781 7.257812 -0.0625 6 -0.78125 C 4.738281 -1.5 3.742188 -2.535156 3.015625 -3.890625 C 2.285156 -5.242188 1.875 -6.785156 1.78125 -8.515625 C 1.664062 -10.128906 1.832031 -12.019531 2.28125 -14.1875 C 2.738281 -16.363281 3.515625 -18.269531 4.609375 -19.90625 C 5.710938 -21.550781 7.035156 -22.773438 8.578125 -23.578125 C 10.128906 -24.390625 11.84375 -24.78125 13.71875 -24.75 C 16.269531 -24.707031 18.265625 -23.988281 19.703125 -22.59375 C 21.148438 -21.207031 21.972656 -19.21875 22.171875 -16.625 L 17.4375 -16.640625 C 17.3125 -18.003906 16.945312 -19.007812 16.34375 -19.65625 C 15.738281 -20.300781 14.84375 -20.644531 13.65625 -20.6875 C 11.582031 -20.757812 9.945312 -19.851562 8.75 -17.96875 C 7.5625 -16.082031 6.882812 -13.351562 6.71875 -9.78125 C 6.613281 -7.863281 6.910156 -6.378906 7.609375 -5.328125 C 8.304688 -4.273438 9.367188 -3.738281 10.796875 -3.71875 C 12.460938 -3.675781 13.882812 -4.070312 15.0625 -4.90625 L 15.875 -9.125 L 11.421875 -9.125 L 12.078125 -12.828125 L 21.390625 -12.828125 Z M 19.921875 -3.078125 "/></g></g></g><g fill="#ffffff" fill-opacity="1"><g transform="translate(128.761201, 65.117486)"><g><path d="M 8.671875 0.328125 C 7.078125 0.316406 5.664062 -0.0664062 4.4375 -0.828125 C 3.21875 -1.597656 2.304688 -2.648438 1.703125 -3.984375 C 1.109375 -5.316406 0.875 -6.789062 1 -8.40625 L 1.0625 -9.078125 C 1.226562 -10.835938 1.738281 -12.457031 2.59375 -13.9375 C 3.457031 -15.414062 4.566406 -16.550781 5.921875 -17.34375 C 7.273438 -18.144531 8.769531 -18.523438 10.40625 -18.484375 C 12.75 -18.429688 14.519531 -17.570312 15.71875 -15.90625 C 16.925781 -14.238281 17.382812 -12.125 17.09375 -9.5625 L 16.8125 -7.5 L 5.703125 -7.5 C 5.660156 -6.320312 5.945312 -5.378906 6.5625 -4.671875 C 7.175781 -3.972656 8.015625 -3.613281 9.078125 -3.59375 C 10.796875 -3.539062 12.300781 -4.203125 13.59375 -5.578125 L 15.765625 -2.90625 C 15.078125 -1.875 14.09375 -1.066406 12.8125 -0.484375 C 11.53125 0.0859375 10.148438 0.359375 8.671875 0.328125 Z M 10.171875 -14.578125 C 9.304688 -14.597656 8.535156 -14.320312 7.859375 -13.75 C 7.179688 -13.175781 6.570312 -12.1875 6.03125 -10.78125 L 12.546875 -10.78125 L 12.640625 -11.21875 C 12.710938 -11.664062 12.71875 -12.09375 12.65625 -12.5 C 12.550781 -13.144531 12.28125 -13.648438 11.84375 -14.015625 C 11.40625 -14.378906 10.847656 -14.566406 10.171875 -14.578125 Z M 10.171875 -14.578125 "/></g></g></g><g fill="#ffffff" fill-opacity="1"><g transform="translate(146.935364, 65.117486)"><g><path d="M 7.53125 -18.15625 L 7.125 -16.015625 C 8.582031 -17.703125 10.34375 -18.523438 12.40625 -18.484375 C 14.113281 -18.441406 15.375 -17.8125 16.1875 -16.59375 C 17.007812 -15.382812 17.3125 -13.695312 17.09375 -11.53125 L 15.171875 0 L 10.453125 0 L 12.390625 -11.59375 C 12.441406 -12.019531 12.453125 -12.414062 12.421875 -12.78125 C 12.273438 -13.914062 11.5625 -14.503906 10.28125 -14.546875 C 9.039062 -14.585938 7.925781 -14.007812 6.9375 -12.8125 L 4.671875 0 L -0.046875 0 L 3.109375 -18.140625 Z M 7.53125 -18.15625 "/></g></g></g><g fill="#ffffff" fill-opacity="1"><g transform="translate(165.763401, 65.117486)"><g/></g></g><g fill="#ffffff" fill-opacity="1"><g transform="translate(174.230153, 65.117486)"><g><path d="M 21.734375 -20.34375 L 14.484375 -20.34375 L 10.96875 0 L 6.046875 0 L 9.578125 -20.34375 L 2.421875 -20.34375 L 3.140625 -24.421875 L 22.453125 -24.421875 Z M 21.734375 -20.34375 "/></g></g></g><g fill="#ffffff" fill-opacity="1"><g transform="translate(195.003027, 65.117486)"><g><path d="M 8.671875 0.328125 C 7.078125 0.316406 5.664062 -0.0664062 4.4375 -0.828125 C 3.21875 -1.597656 2.304688 -2.648438 1.703125 -3.984375 C 1.109375 -5.316406 0.875 -6.789062 1 -8.40625 L 1.0625 -9.078125 C 1.226562 -10.835938 1.738281 -12.457031 2.59375 -13.9375 C 3.457031 -15.414062 4.566406 -16.550781 5.921875 -17.34375 C 7.273438 -18.144531 8.769531 -18.523438 10.40625 -18.484375 C 12.75 -18.429688 14.519531 -17.570312 15.71875 -15.90625 C 16.925781 -14.238281 17.382812 -12.125 17.09375 -9.5625 L 16.8125 -7.5 L 5.703125 -7.5 C 5.660156 -6.320312 5.945312 -5.378906 6.5625 -4.671875 C 7.175781 -3.972656 8.015625 -3.613281 9.078125 -3.59375 C 10.796875 -3.539062 12.300781 -4.203125 13.59375 -5.578125 L 15.765625 -2.90625 C 15.078125 -1.875 14.09375 -1.066406 12.8125 -0.484375 C 11.53125 0.0859375 10.148438 0.359375 8.671875 0.328125 Z M 10.171875 -14.578125 C 9.304688 -14.597656 8.535156 -14.320312 7.859375 -13.75 C 7.179688 -13.175781 6.570312 -12.1875 6.03125 -10.78125 L 12.546875 -10.78125 L 12.640625 -11.21875 C 12.710938 -11.664062 12.71875 -12.09375 12.65625 -12.5 C 12.550781 -13.144531 12.28125 -13.648438 11.84375 -14.015625 C 11.40625 -14.378906 10.847656 -14.566406 10.171875 -14.578125 Z M 10.171875 -14.578125 "/></g></g></g><g fill="#ffffff" fill-opacity="1"><g transform="translate(213.177189, 65.117486)"><g><path d="M 8 -3.5625 C 8.875 -3.53125 9.597656 -3.765625 10.171875 -4.265625 C 10.753906 -4.765625 11.132812 -5.425781 11.3125 -6.25 L 15.765625 -6.265625 C 15.679688 -4.992188 15.28125 -3.847656 14.5625 -2.828125 C 13.84375 -1.816406 12.878906 -1.023438 11.671875 -0.453125 C 10.472656 0.117188 9.207031 0.390625 7.875 0.359375 C 5.675781 0.316406 3.929688 -0.441406 2.640625 -1.921875 C 1.359375 -3.410156 0.738281 -5.390625 0.78125 -7.859375 L 0.84375 -8.78125 L 0.859375 -8.96875 C 1.160156 -11.925781 2.15625 -14.265625 3.84375 -15.984375 C 5.53125 -17.710938 7.613281 -18.546875 10.09375 -18.484375 C 12.132812 -18.429688 13.753906 -17.757812 14.953125 -16.46875 C 16.160156 -15.1875 16.753906 -13.488281 16.734375 -11.375 L 12.328125 -11.375 C 12.328125 -12.34375 12.113281 -13.101562 11.6875 -13.65625 C 11.257812 -14.21875 10.625 -14.523438 9.78125 -14.578125 C 7.519531 -14.640625 6.148438 -12.988281 5.671875 -9.625 C 5.503906 -8.40625 5.441406 -7.378906 5.484375 -6.546875 C 5.597656 -4.585938 6.4375 -3.59375 8 -3.5625 Z M 8 -3.5625 "/></g></g></g><g fill="#ffffff" fill-opacity="1"><g transform="translate(230.71425, 65.117486)"><g><path d="M 7.265625 -16.125 C 8.679688 -17.71875 10.316406 -18.503906 12.171875 -18.484375 C 13.972656 -18.429688 15.296875 -17.78125 16.140625 -16.53125 C 16.984375 -15.289062 17.300781 -13.59375 17.09375 -11.4375 L 15.171875 0 L 10.453125 0 L 12.375 -11.484375 C 12.425781 -11.921875 12.4375 -12.320312 12.40625 -12.6875 C 12.289062 -13.894531 11.585938 -14.519531 10.296875 -14.5625 C 9.023438 -14.601562 7.90625 -14.050781 6.9375 -12.90625 L 4.65625 0 L -0.0625 0 L 4.390625 -25.765625 L 9.140625 -25.765625 Z M 7.265625 -16.125 "/></g></g></g><g fill="#ffffff" fill-opacity="1"><g transform="translate(249.525514, 65.117486)"><g><path d="M 7.53125 -18.15625 L 7.125 -16.015625 C 8.582031 -17.703125 10.34375 -18.523438 12.40625 -18.484375 C 14.113281 -18.441406 15.375 -17.8125 16.1875 -16.59375 C 17.007812 -15.382812 17.3125 -13.695312 17.09375 -11.53125 L 15.171875 0 L 10.453125 0 L 12.390625 -11.59375 C 12.441406 -12.019531 12.453125 -12.414062 12.421875 -12.78125 C 12.273438 -13.914062 11.5625 -14.503906 10.28125 -14.546875 C 9.039062 -14.585938 7.925781 -14.007812 6.9375 -12.8125 L 4.671875 0 L -0.046875 0 L 3.109375 -18.140625 Z M 7.53125 -18.15625 "/></g></g></g><g fill="#ffffff" fill-opacity="1"><g transform="translate(268.353565, 65.117486)"><g><path d="M 10.4375 -18.484375 C 12.03125 -18.460938 13.40625 -18.050781 14.5625 -17.25 C 15.71875 -16.445312 16.566406 -15.34375 17.109375 -13.9375 C 17.648438 -12.539062 17.84375 -10.988281 17.6875 -9.28125 C 17.4375 -6.394531 16.4375 -4.054688 14.6875 -2.265625 C 12.9375 -0.484375 10.773438 0.378906 8.203125 0.328125 C 6.617188 0.304688 5.25 -0.09375 4.09375 -0.875 C 2.945312 -1.664062 2.097656 -2.757812 1.546875 -4.15625 C 1.003906 -5.550781 0.8125 -7.09375 0.96875 -8.78125 C 1.257812 -11.78125 2.273438 -14.160156 4.015625 -15.921875 C 5.765625 -17.691406 7.90625 -18.546875 10.4375 -18.484375 Z M 5.65625 -7.0625 C 5.675781 -5.988281 5.925781 -5.140625 6.40625 -4.515625 C 6.882812 -3.898438 7.5625 -3.582031 8.4375 -3.5625 C 9.882812 -3.507812 11.019531 -4.171875 11.84375 -5.546875 C 12.675781 -6.929688 13.066406 -8.75 13.015625 -11 C 12.972656 -12.070312 12.710938 -12.929688 12.234375 -13.578125 C 11.753906 -14.222656 11.078125 -14.554688 10.203125 -14.578125 C 8.785156 -14.617188 7.65625 -13.953125 6.8125 -12.578125 C 5.96875 -11.210938 5.582031 -9.375 5.65625 -7.0625 Z M 5.65625 -7.0625 "/></g></g></g><g fill="#ffffff" fill-opacity="1"><g transform="translate(287.349247, 65.117486)"><g><path d="M 5.046875 0 L 0.28125 0 L 4.765625 -25.765625 L 9.515625 -25.765625 Z M 5.046875 0 "/></g></g></g><g fill="#ffffff" fill-opacity="1"><g transform="translate(296.35252, 65.117486)"><g><path d="M 10.4375 -18.484375 C 12.03125 -18.460938 13.40625 -18.050781 14.5625 -17.25 C 15.71875 -16.445312 16.566406 -15.34375 17.109375 -13.9375 C 17.648438 -12.539062 17.84375 -10.988281 17.6875 -9.28125 C 17.4375 -6.394531 16.4375 -4.054688 14.6875 -2.265625 C 12.9375 -0.484375 10.773438 0.378906 8.203125 0.328125 C 6.617188 0.304688 5.25 -0.09375 4.09375 -0.875 C 2.945312 -1.664062 2.097656 -2.757812 1.546875 -4.15625 C 1.003906 -5.550781 0.8125 -7.09375 0.96875 -8.78125 C 1.257812 -11.78125 2.273438 -14.160156 4.015625 -15.921875 C 5.765625 -17.691406 7.90625 -18.546875 10.4375 -18.484375 Z M 5.65625 -7.0625 C 5.675781 -5.988281 5.925781 -5.140625 6.40625 -4.515625 C 6.882812 -3.898438 7.5625 -3.582031 8.4375 -3.5625 C 9.882812 -3.507812 11.019531 -4.171875 11.84375 -5.546875 C 12.675781 -6.929688 13.066406 -8.75 13.015625 -11 C 12.972656 -12.070312 12.710938 -12.929688 12.234375 -13.578125 C 11.753906 -14.222656 11.078125 -14.554688 10.203125 -14.578125 C 8.785156 -14.617188 7.65625 -13.953125 6.8125 -12.578125 C 5.96875 -11.210938 5.582031 -9.375 5.65625 -7.0625 Z M 5.65625 -7.0625 "/></g></g></g><g fill="#ffffff" fill-opacity="1"><g transform="translate(315.348201, 65.117486)"><g><path d="M 0.953125 -9.09375 C 1.285156 -11.894531 2.195312 -14.171875 3.6875 -15.921875 C 5.1875 -17.671875 7.070312 -18.53125 9.34375 -18.5 C 11.269531 -18.445312 12.710938 -17.75 13.671875 -16.40625 L 14.28125 -18.15625 L 18.625 -18.140625 L 15.65625 -0.625 C 15.332031 1.789062 14.304688 3.703125 12.578125 5.109375 C 10.847656 6.523438 8.703125 7.207031 6.140625 7.15625 C 4.890625 7.132812 3.691406 6.863281 2.546875 6.34375 C 1.410156 5.820312 0.472656 5.109375 -0.265625 4.203125 L 2.078125 1.328125 C 3.128906 2.660156 4.445312 3.347656 6.03125 3.390625 C 7.257812 3.429688 8.3125 3.109375 9.1875 2.421875 C 10.0625 1.734375 10.65625 0.765625 10.96875 -0.484375 L 11.234375 -1.578125 C 9.910156 -0.253906 8.429688 0.378906 6.796875 0.328125 C 5.023438 0.304688 3.617188 -0.347656 2.578125 -1.640625 C 1.535156 -2.929688 0.96875 -4.609375 0.875 -6.671875 C 0.84375 -7.359375 0.867188 -8.164062 0.953125 -9.09375 Z M 5.59375 -7.109375 C 5.59375 -6.054688 5.8125 -5.210938 6.25 -4.578125 C 6.695312 -3.953125 7.34375 -3.625 8.1875 -3.59375 C 9.46875 -3.539062 10.609375 -4.085938 11.609375 -5.234375 L 13.015625 -12.90625 C 12.535156 -13.957031 11.644531 -14.507812 10.34375 -14.5625 C 9.132812 -14.59375 8.109375 -14.101562 7.265625 -13.09375 C 6.429688 -12.09375 5.910156 -10.757812 5.703125 -9.09375 C 5.617188 -8.269531 5.582031 -7.609375 5.59375 -7.109375 Z M 5.59375 -7.109375 "/></g></g></g><g fill="#ffffff" fill-opacity="1"><g transform="translate(334.528313, 65.117486)"><g><path d="M 7.75 -6.90625 L 12.921875 -18.140625 L 18.1875 -18.140625 L 7.578125 2.734375 C 6.816406 4.328125 5.925781 5.5 4.90625 6.25 C 3.882812 7 2.703125 7.375 1.359375 7.375 C 0.828125 7.375 0.0664062 7.257812 -0.921875 7.03125 L -0.5625 3.34375 L 0.078125 3.375 C 1.617188 3.414062 2.75 2.847656 3.46875 1.671875 L 4.515625 -0.25 L 1.546875 -18.140625 L 6.4375 -18.140625 Z M 7.75 -6.90625 "/></g></g></g></svg>